<svg xmlns="http://www.w3.org/2000/svg" width="162" height="130"><title>Twitter</title><path fill="#fff" d="M145.468 36.62c0 43.376-33.433 93.38-94.569 93.38-18.775 0-36.242-5.43-50.947-14.749 2.605.302 5.248.468 7.927.468 15.567 0 29.9-5.246 41.276-14.045-14.547-.256-26.813-9.75-31.05-22.787 2.03.395 4.117.568 6.258.568 3.032 0 5.962-.412 8.752-1.145-15.214-3.001-26.665-16.267-26.665-32.188v-.403c4.478 2.454 9.605 3.946 15.057 4.083-8.91-5.877-14.788-15.92-14.788-27.3 0-6.015 1.641-11.654 4.497-16.497 16.392 19.848 40.878 32.921 68.516 34.285-.575-2.408-.862-4.907-.862-7.489 0-18.108 14.881-32.802 33.237-32.802 9.56 0 18.201 3.982 24.264 10.363 7.557-1.474 14.677-4.202 21.102-7.974-2.484 7.681-7.75 14.099-14.611 18.154 6.722-.769 13.127-2.536 19.09-5.154-4.469 6.573-10.088 12.341-16.588 16.982.066 1.401.103 2.829.103 4.248l.001.002z"/></svg>