<?xml version="1.0" encoding="utf-8"?>
<!-- Generator: Adobe Illustrator 17.0.0, SVG Export Plug-In . SVG Version: 6.00 Build 0)  -->
<!DOCTYPE svg PUBLIC "-//W3C//DTD SVG 1.1//EN" "http://www.w3.org/Graphics/SVG/1.1/DTD/svg11.dtd">
<svg version="1.1" id="レイヤー_1" xmlns="http://www.w3.org/2000/svg" xmlns:xlink="http://www.w3.org/1999/xlink" x="0px"
	 y="0px" width="128px" height="132px" viewBox="0 0 128 132" enable-background="new 0 0 128 132" xml:space="preserve">
<path fill="#040000" d="M64.002,4c-25.051,0-45.36,10.256-45.36,22.908v0.443c0,5.719,4.006,10.952,10.634,15.012
	c-0.047-0.255-0.166-1.364-0.166-1.664c0-9.73,15.618-17.622,34.893-17.622c19.271,0,34.891,7.892,34.891,17.622
	c0,0.301-0.119,1.41-0.166,1.665c6.629-4.06,10.636-9.294,10.636-15.014v-0.443C109.363,14.256,89.053,4,64.002,4z M98.772,35.304
	c-0.128-0.291-0.264-0.581-0.405-0.87c-0.198-0.4-0.362-0.821-0.623-1.143c-0.217-0.27-1.284-1.713-3.482-3.484
	c-0.473-0.383-0.991-0.766-1.559-1.158c-1.827-1.251-4.115-2.528-6.902-3.652c-0.117-0.047-0.234-0.094-0.354-0.14
	c-2.868-1.103-6.215-2.039-10.077-2.635c-0.026,0,0.06-0.847,0.06-0.847c3.714,0.554,7.015,1.439,9.9,2.512
	c2.885,1.073,5.373,2.305,7.409,3.628c3.384,2.203,5.284,4.446,5.938,5.536c0.269,0.451,0.525,0.949,0.755,1.456L98.772,35.304z
	 M100.096,33.706c-0.256-0.568-0.572-1.179-0.908-1.771c-0.232-0.413-0.443-0.838-0.736-1.179c-0.433-0.492-1.674-1.932-3.934-3.605
	c-0.525-0.392-1.105-0.777-1.725-1.164c-2.087-1.3-4.612-2.577-7.597-3.659c-0.132-0.047-0.26-0.089-0.396-0.136
	c-3.207-1.107-6.862-1.996-10.964-2.511c-0.053,0-0.036-0.849-0.036-0.849c4.013,0.474,7.667,1.319,10.925,2.403
	c3.258,1.087,6.149,2.366,8.544,3.844c3.388,2.086,5.422,4.312,6.279,5.589c0.458,0.683,0.876,1.464,1.22,2.228L100.096,33.706z
	 M101.45,32.071c-0.352-0.817-0.868-1.745-1.439-2.637c-0.271-0.422-0.523-0.858-0.851-1.211c-0.659-0.706-2.072-2.147-4.379-3.729
	c-0.588-0.4-1.224-0.785-1.896-1.173c-2.348-1.347-5.115-2.609-8.292-3.658c-0.145-0.051-0.292-0.094-0.442-0.141
	c-3.541-1.107-7.509-1.945-11.853-2.383c-0.077,0-0.132-0.851-0.132-0.851c4.313,0.396,8.326,1.2,11.955,2.3
	c3.631,1.096,6.917,2.433,9.671,4.048c3.39,1.988,5.555,4.182,6.627,5.646c0.667,0.915,1.258,1.983,1.701,2.98L101.45,32.071z
	 M102.81,30.431c-0.403-1.062-1.136-2.309-1.977-3.497c-0.307-0.43-0.605-0.873-0.968-1.243c-0.889-0.911-2.473-2.354-4.832-3.852
	c-0.644-0.409-1.335-0.796-2.058-1.179c-2.608-1.387-5.616-2.65-8.989-3.665c-0.16-0.047-0.322-0.094-0.484-0.141
	c-3.885-1.098-8.156-1.898-12.738-2.256l-0.233-0.856c4.614,0.317,8.983,1.085,12.985,2.196c4.002,1.111,7.68,2.503,10.804,4.256
	c3.378,1.896,5.678,4.059,6.968,5.704c0.898,1.147,1.674,2.503,2.194,3.72L102.81,30.431z M104.179,28.781
	c-0.051-0.153-0.105-0.306-0.166-0.46c-0.488-1.224-1.36-2.596-2.358-3.886c-0.341-0.443-0.684-0.89-1.083-1.277
	c-1.13-1.109-2.878-2.556-5.281-3.973c-0.704-0.415-1.448-0.805-2.222-1.19c-2.872-1.426-6.119-2.682-9.686-3.669
	c-0.173-0.047-0.35-0.094-0.524-0.141c-4.224-1.107-8.806-1.849-13.627-2.128L68.902,11.2c4.913,0.238,9.638,0.964,14.015,2.092
	c4.375,1.124,8.435,2.584,11.936,4.465c3.362,1.809,5.791,3.937,7.309,5.761c1.141,1.373,2.104,2.997,2.691,4.448L104.179,28.781z
	 M105.559,27.113c-0.126-0.362-0.262-0.734-0.429-1.098c-0.601-1.349-1.55-2.758-2.652-4.082c-0.38-0.451-0.763-0.903-1.198-1.307
	c-1.375-1.3-3.286-2.754-5.733-4.099c-0.761-0.417-1.561-0.811-2.384-1.194c-3.139-1.464-6.627-2.705-10.384-3.671
	c-0.188-0.051-0.377-0.096-0.569-0.142c-4.559-1.109-9.452-1.803-14.516-2.003l-0.426-0.86c5.22,0.157,10.294,0.847,15.045,1.984
	c4.748,1.138,9.19,2.677,13.066,4.68c3.35,1.73,5.911,3.818,7.655,5.817c1.394,1.594,2.529,3.461,3.196,5.169L105.559,27.113z
	 M106.966,25.419c-0.209-0.566-0.433-1.145-0.714-1.715c-0.725-1.468-1.746-2.918-2.955-4.269c-0.412-0.46-0.842-0.915-1.309-1.343
	c-1.625-1.485-3.693-2.943-6.184-4.22c-0.823-0.419-1.678-0.817-2.552-1.205c-3.401-1.494-7.128-2.737-11.079-3.673
	c-0.2-0.049-0.407-0.096-0.612-0.14c-4.898-1.111-10.098-1.756-15.405-1.877l-0.522-0.862c5.518,0.079,10.953,0.728,16.073,1.877
	c5.124,1.152,9.945,2.775,14.2,4.889c3.333,1.656,6.019,3.707,7.998,5.874c1.514,1.66,2.74,3.541,3.529,5.406
	c0.066,0.157,0.12,0.317,0.184,0.477L106.966,25.419z"/>
<path fill="#040000" d="M123.825,95.497c-0.16-1.118-0.792-3.231-0.775-3.196c0,0-0.529-1.294-1.262-2.747
	c-2.02-3.66-5.351-7.044-9.746-10.004c-3.729-3.001-6.834-4.821-6.834-4.821c7.884,3.551,12.527,7.096,14.942,10.186
	c-2.943-8.214-6.162-17.026-8.409-20.277c-1.68,5.58-6.493,10.626-13.985,14.51c-8.968,4.646-20.981,7.204-33.823,7.204
	c-24.384,0-43.36-9.089-46.98-21.763c-2.975,6.641-8.404,18.904-10.429,24.417C5.471,92.335,4,97.129,4,97.702
	C4,114.435,30.864,128,64.002,128C97.139,128,124,114.435,124,97.702C124,97.128,123.935,95.826,123.825,95.497z M26.392,78.932
	c0,0,3.365,2.147,5.333,3.098c1.087,0.528,2.234,1.017,3.418,1.485c1.629,0.639,3.337,1.222,5.09,1.75
	c1.829,0.545,3.706,1.026,5.588,1.441c2.021,0.445,4.047,0.815,6.032,1.107c4.719,0.7,9.19,0.964,12.772,0.785
	c0.134-0.006,0,0,0.134-0.006c-0.045,0.006,0.302,0.865,0.302,0.865c-0.561,0.03-1.281,0.057-1.895,0.061
	c-1.388,0.028-2.895-0.009-4.484-0.102c-4.394-0.251-9.435-0.966-14.448-2.171c-0.584-0.143-1.175-0.294-1.761-0.447
	c-2.915-0.785-5.759-1.75-8.401-2.85c-3.089-1.288-5.834-2.695-8.203-4.402C25.977,79.419,26.329,79.053,26.392,78.932z
	 M24.938,80.63c1.467,1.271,3.384,2.562,5.512,3.667c1.136,0.59,2.348,1.134,3.606,1.654c1.733,0.715,3.565,1.37,5.463,1.954
	c1.943,0.596,3.953,1.121,5.985,1.571c2.134,0.468,4.288,0.856,6.411,1.154c4.981,0.711,9.776,0.949,13.778,0.677l0.356,0.869
	c-0.608,0.04-1.45,0.084-2.111,0.101c-1.546,0.047-3.205,0.028-4.938-0.059c-4.832-0.234-10.241-1-15.561-2.335
	c-0.631-0.159-1.26-0.325-1.891-0.504c-3.156-0.892-6.188-2.007-8.953-3.252c-3.147-1.417-5.946-2.982-8.247-4.791
	C24.331,81.296,24.938,80.63,24.938,80.63z M23.45,82.422c1.443,1.424,3.433,2.88,5.729,4.137c1.181,0.651,2.458,1.254,3.793,1.83
	c1.834,0.788,3.787,1.515,5.832,2.158c2.06,0.645,4.198,1.211,6.38,1.69c2.247,0.496,4.531,0.9,6.799,1.209
	c5.237,0.715,10.358,0.928,14.783,0.568l0.27,0.871c-0.661,0.051-1.617,0.12-2.325,0.146c-1.706,0.07-3.514,0.066-5.392-0.015
	c-5.267-0.217-11.051-1.043-16.674-2.499c-0.676-0.175-1.35-0.362-2.017-0.558c-3.405-1.002-6.625-2.269-9.514-3.661
	c-3.198-1.543-6.053-3.256-8.29-5.172C22.797,83.073,23.45,82.422,23.45,82.422z M21.966,84.209c1.426,1.577,3.484,3.199,5.94,4.616
	c1.232,0.709,2.569,1.369,3.983,2.001c1.932,0.866,4.008,1.658,6.2,2.362c2.175,0.696,4.444,1.304,6.774,1.818
	c2.36,0.517,4.77,0.938,7.181,1.254c5.495,0.728,10.823,0.927,15.663,0.476l0.325,0.895c-0.71,0.059-1.797,0.124-2.549,0.156
	c-1.866,0.096-3.825,0.106-5.846,0.034c-5.704-0.2-11.864-1.081-17.789-2.663c-0.721-0.192-1.437-0.396-2.147-0.609
	c-3.648-1.117-7.057-2.53-10.06-4.073c-3.258-1.669-6.158-3.573-8.326-5.595L21.966,84.209z M20.431,85.98
	c1.409,1.73,3.537,3.52,6.153,5.091c1.284,0.77,2.687,1.486,4.175,2.175c2.032,0.936,4.235,1.8,6.569,2.567
	c2.29,0.745,4.693,1.394,7.168,1.941c2.476,0.543,5.011,0.983,7.567,1.305c5.753,0.738,11.357,0.923,16.622,0.382l0.316,0.853
	c-0.757,0.068-1.993,0.188-2.793,0.231c-2.026,0.119-4.134,0.142-6.296,0.077c-6.141-0.181-12.674-1.119-18.904-2.822
	c-0.763-0.213-1.52-0.434-2.275-0.668c-3.891-1.226-7.495-2.786-10.618-4.476c-3.311-1.792-6.224-3.842-8.326-5.963L20.431,85.98z
	 M18.932,87.766c1.39,1.883,3.593,3.835,6.369,5.565c1.331,0.83,2.798,1.605,4.358,2.348c2.136,1.015,4.465,1.947,6.943,2.773
	c2.405,0.792,4.94,1.486,7.565,2.065c2.593,0.568,5.256,1.026,7.951,1.354c6.009,0.749,11.859,0.862,17.543,0.234l0.341,0.937
	c-0.808,0.079-2.187,0.186-3.029,0.235c-2.183,0.142-4.448,0.185-6.753,0.123c-6.58-0.164-13.486-1.16-20.021-2.986
	c-0.806-0.23-1.608-0.47-2.401-0.723c-4.137-1.337-7.93-3.041-11.173-4.882c-3.369-1.915-6.225-4.17-8.265-6.4L18.932,87.766z
	 M17.413,89.487c1.369,2.035,3.663,4.223,6.602,6.112c1.382,0.89,2.91,1.72,4.548,2.52c2.235,1.087,4.689,2.09,7.315,2.975
	c2.518,0.843,5.185,1.581,7.958,2.19c2.704,0.594,5.497,1.068,8.333,1.407c6.269,0.758,12.403,0.899,18.507,0.184
	c-0.068,0.008,0.313,0.88,0.313,0.88c-0.859,0.09-2.366,0.221-3.255,0.278c-2.343,0.166-4.759,0.224-7.209,0.168
	c-7.015-0.145-14.292-1.196-21.134-3.15c-0.848-0.245-1.691-0.502-2.524-0.775c-4.388-1.447-8.373-3.295-11.731-5.289
	c-3.424-2.037-5.639-3.611-8.009-6.48l-0.257-0.381L17.413,89.487z M15.846,91.33c1.352,2.188,3.792,4.486,6.888,6.538
	c1.431,0.945,3.019,1.839,4.736,2.692c2.337,1.162,4.913,2.235,7.682,3.18c2.638,0.892,5.433,1.675,8.356,2.313
	c2.814,0.622,5.735,1.111,8.714,1.456c6.529,0.766,12.903,0.875,19.43,0.071l0.326,0.897c-0.906,0.098-2.547,0.25-3.481,0.318
	c-2.505,0.187-5.07,0.26-7.663,0.213c-7.45-0.128-15.1-1.234-22.249-3.312c-0.894-0.262-1.778-0.541-2.655-0.832
	c-4.625-1.558-8.804-3.548-12.279-5.695c-3.486-2.152-5.663-3.726-7.892-6.665c-0.147-0.215-0.302-0.389-0.436-0.558
	C15.322,91.945,15.803,91.3,15.846,91.33z M14.377,93.056c1.328,2.343,3.817,4.867,7.074,7.079c1.482,1.002,3.132,1.956,4.921,2.862
	c2.442,1.239,5.141,2.381,8.056,3.388c2.748,0.941,5.68,1.766,8.753,2.439c2.928,0.643,5.974,1.149,9.1,1.503
	c6.783,0.779,13.421,0.883,20.365-0.011c0.062,0,0.321,0.884,0.321,0.884c-0.957,0.106-2.729,0.277-3.708,0.351
	c-2.665,0.215-5.38,0.3-8.117,0.262c-7.887-0.111-15.908-1.275-23.362-3.478c-0.938-0.279-1.864-0.575-2.78-0.885
	c-4.874-1.669-9.243-3.801-12.836-6.102c-3.546-2.275-6.416-4.716-8.258-7.259c-0.158-0.292-0.092-0.116-0.158-0.292
	C13.786,93.822,14.335,93.033,14.377,93.056z M12.858,94.843c1.313,2.496,3.916,5.187,7.334,7.558
	c1.531,1.064,3.247,2.073,5.113,3.037c2.537,1.311,5.365,2.526,8.424,3.59c2.864,0.992,5.93,1.86,9.145,2.562
	c3.045,0.668,6.217,1.196,9.486,1.556c7.038,0.785,13.913,0.88,21.278-0.105c0.049,0,0.26,0.857,0.311,0.854
	c-0.446,0.068-0.407,0.058-0.851,0.113c-1.004,0.119-2.023,0.217-3.049,0.302c-2.823,0.236-5.691,0.336-8.573,0.302
	c-8.322-0.089-16.717-1.311-24.476-3.637c-0.981-0.296-1.951-0.609-2.908-0.941c-5.119-1.779-9.68-4.05-13.39-6.51
	c-3.608-2.388-6.475-4.957-8.249-7.607c-0.088-0.196-0.116-0.178-0.189-0.376C12.293,95.564,12.825,94.822,12.858,94.843z
	 M11.391,96.567c1.294,2.65,3.971,5.57,7.543,8.103c1.58,1.119,3.362,2.188,5.298,3.21c2.64,1.387,5.588,2.669,8.797,3.792
	c2.979,1.039,6.173,1.95,9.539,2.69c3.16,0.692,6.461,1.234,9.868,1.605c7.301,0.796,14.406,0.874,22.192-0.199
	c0.038,0,0.267,0.832,0.301,0.828c-0.486,0.077-0.415,0.082-0.903,0.146c-1.053,0.128-2.122,0.238-3.192,0.328
	c-2.983,0.259-6,0.375-9.023,0.349c-8.761-0.072-17.529-1.349-25.597-3.801c-1.021-0.315-2.036-0.645-3.034-0.996
	c-5.361-1.89-10.122-4.301-13.945-6.917c-3.667-2.507-6.533-5.202-8.239-7.953c-0.098-0.215-0.126-0.266-0.205-0.48
	C10.793,97.271,11.361,96.548,11.391,96.567z M9.857,98.371c1.275,2.803,4.086,5.871,7.821,8.564
	c1.629,1.179,3.469,2.307,5.488,3.382c2.74,1.462,5.812,2.811,9.166,3.999c3.092,1.092,6.418,2.043,9.934,2.814
	c3.271,0.719,6.697,1.281,10.25,1.656c7.561,0.805,14.88,0.876,23.087-0.288c0.028,0,0.289,0.831,0.321,0.831
	c-0.535,0.079-0.434,0.075-0.964,0.143c-1.107,0.14-2.218,0.255-3.335,0.353c-3.145,0.285-6.313,0.417-9.482,0.396
	c-9.196-0.053-18.335-1.387-26.708-3.963c-1.066-0.33-2.124-0.681-3.162-1.051c-5.608-1.998-10.559-4.55-14.499-7.321
	c-3.727-2.622-6.591-5.446-8.233-8.302c-0.109-0.236-0.208-0.312-0.297-0.546C9.265,99.046,9.84,98.358,9.857,98.371z
	 M8.395,100.089c1.254,2.954,4.161,6.262,8.052,9.118c1.682,1.232,3.584,2.422,5.672,3.552c2.844,1.536,6.041,2.956,9.542,4.203
	c3.209,1.141,6.667,2.137,10.328,2.939c3.386,0.743,6.942,1.322,10.633,1.705c7.817,0.815,15.367,0.873,23.994-0.376
	c0.039,0.106,0.279,0.815,0.296,0.813c0,0-0.417,0.087-0.993,0.163c-1.156,0.145-2.316,0.272-3.48,0.379
	c-3.301,0.306-6.623,0.455-9.934,0.443c-9.635-0.038-19.145-1.43-27.821-4.129c-1.111-0.345-2.209-0.715-3.29-1.107
	c-5.855-2.109-11.002-4.797-15.051-7.726c-3.793-2.741-6.655-5.689-8.228-8.653c-0.117-0.253-0.199-0.391-0.297-0.646
	C7.833,100.776,8.385,100.081,8.395,100.089z M76.834,124.936c-1.205,0.157-2.41,0.294-3.619,0.406
	c-3.467,0.332-6.938,0.492-10.392,0.487c-10.068-0.019-19.955-1.468-28.936-4.29c-1.154-0.364-2.294-0.749-3.416-1.16
	c-6.096-2.222-11.448-5.042-15.61-8.134c-3.855-2.85-6.71-5.933-8.22-9c-0.123-0.277-0.233-0.425-0.335-0.699
	c0.007,0.004,0.594-0.707,0.598-0.703c1.239,3.107,4.226,6.603,8.271,9.627c1.734,1.292,3.695,2.543,5.864,3.726
	c2.94,1.611,6.262,3.103,9.906,4.408c3.324,1.192,6.915,2.228,10.727,3.063c3.501,0.766,7.183,1.364,11.017,1.756
	c8.077,0.826,15.829,0.878,24.881-0.463c0.009,0,0.352,0.788,0.361,0.788C77.93,124.748,77.454,124.855,76.834,124.936z"/>
<g>
	<path fill="#040000" d="M110.73,33.663c0.019-0.277,0.029-0.555,0.029-0.834L110.73,33.663z"/>
	<path fill="#040000" d="M64.002,56.44c-21.572-0.179-45.879-9.696-46.761-23.611c0,0,1.65,26.734,1.726,27.281
		c0.002-0.004,0.003-0.006,0.003-0.006c0,0.017-0.001,0.019-0.003,0.006c-0.007,0.016-0.03,0.065-0.06,0.132
		c0.087,12.999,19.257,23.523,45.024,23.523c25.224,0,44.949-10.088,45.851-22.712l0.948-27.39
		C109.86,46.323,89.27,56.648,64.002,56.44z M26.966,51.317c1.832,1.177,3.682,2.228,5.535,3.158
		c0.471,0.236,0.936,0.462,1.403,0.683c2.262,1.06,4.516,1.954,6.735,2.699c0.343,0.115,0.682,0.226,1.024,0.332
		c3.691,1.171,7.224,1.932,10.461,2.416c0.124,0.019,0.247,0.036,0.369,0.053c6.237,0.902,10.48,0.625,11.429,0.619l0,0.862
		c-0.32,0.004-1.141,0.064-2.813,0.052c-1.789-0.021-3.977-0.128-6.465-0.4c-2.674-0.3-5.595-0.792-8.674-1.549
		c-3.117-0.766-6.409-1.8-9.757-3.218c-2.731-1.154-5.473-2.567-8.201-4.248c-0.19-0.104-0.738-0.553-1.021-0.695
		C26.991,52.08,26.942,51.298,26.966,51.317z M26.991,53.99c1.776,1.168,3.42,2.118,5.237,3.048c0.469,0.24,0.938,0.47,1.405,0.696
		c2.247,1.073,4.51,1.975,6.761,2.733c0.339,0.115,0.678,0.226,1.017,0.332c3.65,1.162,7.201,1.928,10.523,2.418
		c0.121,0.017,0.245,0.034,0.367,0.053c5.936,0.853,10.177,0.642,11.552,0.638l0,0.86c-0.459,0.002-1.364,0.056-2.995,0.037
		c-1.944-0.034-4.22-0.158-6.74-0.443c-2.838-0.332-5.857-0.864-8.979-1.669c-3.154-0.809-6.431-1.881-9.719-3.333
		c-2.748-1.215-5.748-2.776-8.429-4.528V53.99z M26.991,56.649c1.627,1.079,3.282,2.073,4.97,2.954
		c0.465,0.243,0.932,0.477,1.403,0.702c2.234,1.083,4.503,2.001,6.782,2.771c0.337,0.115,0.677,0.216,1.009,0.332
		c4.45,1.556,10.832,2.456,10.955,2.473c5.633,0.807,9.908,0.66,11.714,0.66l0.014,0.857c-0.601,0.004-1.641,0.046-3.238,0.024
		c-2.098-0.051-4.456-0.192-7.011-0.492c-3.002-0.364-6.117-0.939-9.281-1.783c-3.194-0.851-6.452-1.965-9.678-3.452
		c-2.593-1.192-5.126-2.633-7.597-4.303L26.991,56.649z M27.154,59.471c1.48,0.992,2.987,1.922,4.537,2.741
		c0.463,0.247,0.93,0.485,1.401,0.717c2.224,1.094,4.499,2.024,6.81,2.807c0.333,0.111,0.67,0.221,1.004,0.328
		c3.571,1.141,7.147,1.92,10.644,2.426c0.121,0.017,0.245,0.034,0.369,0.051c5.335,0.743,9.669,0.654,11.906,0.656l0.011,0.883
		c-0.731,0-1.932,0.032-3.488,0.004c-2.252-0.062-4.699-0.221-7.284-0.534c-3.166-0.396-6.379-1.013-9.586-1.903
		c-3.232-0.894-6.473-2.05-9.637-3.567c-2.284-1.094-4.497-2.386-6.644-3.852L27.154,59.471z M27.316,62.331
		c1.39,0.945,2.808,1.835,4.275,2.63c0.465,0.251,0.93,0.49,1.399,0.728c2.215,1.103,4.497,2.045,6.838,2.839
		c0.33,0.111,0.663,0.221,0.996,0.328c3.533,1.128,7.126,1.915,10.71,2.43c0.121,0.017,0.245,0.034,0.367,0.051
		c5.034,0.707,9.318,0.689,11.981,0.691l0.015,0.869c-0.872,0-2.111,0.019-3.631-0.015c-2.405-0.074-4.94-0.253-7.559-0.579
		c-3.326-0.43-6.638-1.088-9.889-2.022c-3.271-0.934-6.491-2.133-9.597-3.682c-2.028-1.009-3.977-2.171-5.859-3.469L27.316,62.331z
		 M27.475,65.157c1.318,0.911,2.668,1.775,4.077,2.547c0.463,0.253,0.923,0.5,1.394,0.739c2.2,1.115,4.488,2.069,6.862,2.875
		c0.33,0.113,0.659,0.224,0.989,0.326c3.495,1.119,7.1,1.911,10.772,2.435c0.121,0.017,0.243,0.034,0.367,0.051
		c4.734,0.66,8.956,0.713,12.05,0.718l0.023,0.862c-1.008,0-2.288,0.008-3.77-0.03c-2.559-0.089-5.181-0.285-7.827-0.626
		c-3.497-0.46-6.904-1.162-10.196-2.137c-3.309-0.979-6.512-2.22-9.561-3.801c-1.78-0.92-3.486-1.971-5.132-3.112L27.475,65.157z
		 M27.635,67.984c1.249,0.877,2.531,1.711,3.874,2.462c0.46,0.257,0.925,0.507,1.394,0.747c2.188,1.126,4.484,2.094,6.885,2.916
		c0.328,0.109,0.659,0.217,0.989,0.324c3.452,1.107,7.066,1.907,10.829,2.437c0.121,0.017,0.245,0.034,0.367,0.049
		c4.433,0.611,8.614,0.736,12.136,0.743l0.005,0.862c-1.151-0.002-2.457-0.009-3.898-0.053c-2.716-0.098-5.426-0.315-8.107-0.668
		c-3.659-0.491-7.162-1.234-10.499-2.254c-3.345-1.022-6.529-2.307-9.52-3.916c-1.525-0.822-2.991-1.73-4.405-2.716L27.635,67.984z
		 M60.192,81.264c-2.87-0.113-5.661-0.347-8.375-0.715c-3.823-0.524-7.422-1.307-10.802-2.371c-3.386-1.064-6.546-2.403-9.482-4.035
		c-1.273-0.713-2.497-1.49-3.68-2.311l-0.058-1.013c1.185,0.841,2.397,1.643,3.678,2.371c0.458,0.26,0.921,0.511,1.392,0.758
		c2.179,1.136,4.48,2.115,6.91,2.945c0.326,0.113,0.65,0.221,0.981,0.328c3.412,1.094,7.047,1.903,10.891,2.439
		c0.124,0.017,0.245,0.034,0.369,0.051c4.132,0.558,8.16,0.751,12.109,0.762v0.862C62.84,81.332,61.599,81.315,60.192,81.264z
		 M61.362,59.577c-1.633-0.013-3.736-0.098-6.192-0.355c-2.51-0.27-5.335-0.717-8.369-1.432c-3.081-0.723-6.384-1.728-9.8-3.103
		c-2.706-1.098-5.469-2.435-8.241-4.048c-0.213-0.119-1.292-0.79-1.77-1.065c0.023,0.017-0.024-0.93,0-0.913
		c1.849,1.154,3.936,2.343,5.778,3.252c0.469,0.23,0.94,0.453,1.407,0.671c2.273,1.051,4.52,1.932,6.71,2.664
		c0.343,0.115,0.686,0.226,1.028,0.332c3.733,1.183,7.254,1.939,10.401,2.413c0.121,0.017,0.245,0.036,0.367,0.051
		c6.54,0.953,10.783,0.614,11.303,0.605v0.864C63.809,59.518,63.072,59.583,61.362,59.577z"/>
</g>
</svg>
