<svg xmlns="http://www.w3.org/2000/svg" width="841.89" height="595.28"><path fill-rule="evenodd" clip-rule="evenodd" fill="#040000" d="M405 331.5c0-.275.225-.5.5-.5h23c.275 0 .5.225.5.5v2c0 .275-.225.5-.5.5h-23c-.275 0-.5-.225-.5-.5v-2zm0-4c0 .275.225.5.5.5h10.833c.275 0 .5-.225.5-.5v-2c0-.275-.225-.5-.5-.5h-10.833c-.275 0-.5.225-.5.5v2zm0-6c0 .275.225.5.5.5h10.833c.275 0 .5-.225.5-.5v-2c0-.275-.225-.5-.5-.5h-10.833c-.275 0-.5.225-.5.5v2zm0 18c0 .275.225.5.5.5h23c.275 0 .5-.225.5-.5v-2c0-.275-.225-.5-.5-.5h-23c-.275 0-.5.225-.5.5v2z"/><path fill-rule="evenodd" clip-rule="evenodd" fill="#040000" d="M429 319.5c0-.275-.225-.5-.5-.5h-8.375c-.275 0-.5.225-.5.5v7.917c0 .275.225.5.5.5h8.375c.275 0 .5-.225.5-.5v-7.917z"/></svg>