<?xml version="1.0" encoding="utf-8"?>
<!-- Generator: Adobe Illustrator 16.2.1, SVG Export Plug-In . SVG Version: 6.00 Build 0)  -->
<!DOCTYPE svg PUBLIC "-//W3C//DTD SVG 1.1//EN" "http://www.w3.org/Graphics/SVG/1.1/DTD/svg11.dtd">
<svg version="1.1" id="レイヤー_1" xmlns="http://www.w3.org/2000/svg" xmlns:xlink="http://www.w3.org/1999/xlink" x="0px"
	 y="0px" width="51px" height="44px" viewBox="0 0 51 44" enable-background="new 0 0 51 44" xml:space="preserve">
<title>Share_icon</title>
<g transform="translate(-28 -18)">
	<path fill="#FFFFFF" d="M60,53.342v2.52c0,1.097-0.9,1.992-2,1.992H34c-1.1,0-2-0.896-2-1.992V31.949c0-1.096,0.9-1.993,2-1.993
		h6.186c2.014-1.662,4.292-2.975,6.712-3.985H36c-4.41,0-8,3.575-8,7.971v19.927c0,4.396,3.59,7.971,8,7.971h20
		c4.41,0,8-3.574,8-7.971v-3.52L60,53.342z"/>
	<path fill="#FFFFFF" d="M78.555,33.337L58.816,18.624c-0.44-0.329-0.801-0.149-0.799,0.398l0.008,7.411L58,26.562v0.869
		c-4.258,0.337-21.678,2.79-21.936,20.581c3.638-8.627,16.242-8.493,21.936-8.447v0.805l0.04,0.19l0.01,8.326
		c0,0.549,0.362,0.727,0.8,0.396l19.707-14.75C78.996,34.205,78.994,33.667,78.555,33.337L78.555,33.337z"/>
</g>
</svg>
