<svg xmlns="http://www.w3.org/2000/svg" width="155" height="104"><title>Upload Icon</title><g fill="#fff" transform="translate(20 1307)"><path d="M-4.233-1306.307h109.32c10.782 0 14.189 14.189 14.189 14.189v10.803h-14.674v-9.192c0-1.449-1.837-1.837-1.837-1.837h-105.549c-1.45 0-2.335 2.335-2.335 2.335s-.885 66.744 0 68.194c.886 1.449 1.987 1.987 1.987 1.987h105.8c1.935 0 2.044-2.043 2.044-2.043v-10.92h-13.667l21.137-27.886 21.929 27.733h-14.996v13.384l-12.737 13.866h-111.418c-11.953 0-14.21-14.995-14.21-14.995v-70.682c0-13.378 15.017-14.936 15.017-14.936z"/><path d="M-1.17-1232.234h89.972l-22.412-31.119-9.513 14.834-20.961-33.215-37.086 49.5z"/><path d="M80.074-1266.578c4.451 0 8.062-3.61 8.062-8.062 0-4.453-3.61-8.062-8.062-8.062-4.453 0-8.062 3.609-8.062 8.062 0 4.452 3.609 8.062 8.062 8.062z"/></g></svg>