<svg xmlns="http://www.w3.org/2000/svg" width="155" height="104"><title>Upload_fail</title><g fill="#fff"><path d="M15.767.693h109.32c10.782 0 14.189 14.189 14.189 14.189v10.803h-14.674v-9.192c0-1.449-1.837-1.837-1.837-1.837h-105.549c-1.45 0-2.335 2.335-2.335 2.335s-.885 66.744 0 68.194c.886 1.449 1.987 1.987 1.987 1.987h105.8c1.935 0 2.044-2.043 2.044-2.043v-10.92h-13.667l21.137-27.886 21.929 27.733h-14.996v13.384l-12.737 13.866h-111.418c-11.953 0-14.21-14.995-14.21-14.995v-70.682c0-13.378 15.017-14.936 15.017-14.936z"/><path d="M93.367 48.999c4.453 0 8.062-3.609 8.062-8.062s-3.609-8.062-8.062-8.062-8.062 3.609-8.062 8.062 3.609 8.062 8.062 8.062z"/><path d="M42.367 48.999c4.453 0 8.062-3.609 8.062-8.062s-3.609-8.062-8.062-8.062-8.062 3.609-8.062 8.062 3.61 8.062 8.062 8.062z"/><path d="M77.683 64.427c-1.534 1.284-2.304 1.927-4.276 1.927-1.965 0-2.735-.643-4.27-1.927-1.983-1.655-4.696-3.927-9.732-3.927-5.034 0-7.747 2.271-9.73 3.93-1.528 1.281-2.298 1.924-4.258 1.924s-2.73-.643-4.258-1.924c-1.983-1.658-4.696-3.93-9.729-3.93v9.146c1.963 0 2.733.643 4.261 1.924 1.983 1.658 4.693 3.93 9.727 3.93 5.034 0 7.743-2.271 9.727-3.93 1.528-1.281 2.298-1.924 4.261-1.924 1.965 0 2.735.643 4.27 1.927 1.983 1.655 4.696 3.927 9.732 3.927 5.041 0 7.755-2.271 9.738-3.927 1.535-1.284 2.305-1.927 4.273-1.927s2.736.643 4.273 1.927c1.982 1.655 4.697 3.927 9.738 3.927v-9.146c-1.973 0-2.739-.643-4.276-1.927-1.983-1.659-4.698-3.927-9.735-3.927s-7.753 2.268-9.736 3.927z"/></g></svg>