<svg xmlns="http://www.w3.org/2000/svg" width="130" height="130"><title>Browser</title><g fill="#fff" transform="translate(-400 -350)"><path d="M442.009 469.007h-25.79c-3.734 1.872-6.86 4.451-8.918 7.988 2.598 1.772 5.729 2.813 9.093 2.813h25.718c-.054-.388-.092-.781-.092-1.188l-.011-9.613z"/><path d="M513.605 350.192h-97.211c-8.913 0-16.202 7.289-16.202 16.202v84.229c2.762-4.852 6.371-9.145 10.802-12.816v-49.811h108.013v81.01h-43.536l-14.582 10.803h52.716c8.914 0 16.201-7.289 16.201-16.201v-97.213c.003-8.914-7.286-16.203-16.201-16.203zm5.402 27.004h-108.014v-16.201h108.013l.001 16.201z"/><path d="M495.175 443.723c-5.106-3.767-43.13-31.812-44.904-33.121-.872-.643-1.743-.334-1.743.817-.02.355.019 17.171.02 18.056 0 .291.159.903-.179.93-5.242.43-10.458 1.484-15.464 3.089-7.342 2.354-14.359 6.032-19.963 11.388-6.113 5.842-10.073 13.465-11.728 21.73-.652 3.263-.973 6.588-1.022 9.912 7.322-17.408 29.661-19.002 45.914-18.951.215 0 2.472-.002 2.472.029 0 .133.02 17.229.025 21.008.002 2.455 2.496.258 3.314-.346 1.966-1.457 38.799-28.742 41.138-30.474 1.113-.825 4.209-2.524 2.12-4.067z"/></g></svg>