<svg xmlns="http://www.w3.org/2000/svg" width="48" height="48"><title>Loading</title><path fill="#fff" d="M35.441 2.711c1.337.707 2.596 1.538 3.768 2.475l-4.287 4.241c-.576-.428-1.172-.821-1.798-1.18l2.317-5.536zm-27.325 3.24l4.249 4.207c1.007-.855 2.104-1.603 3.284-2.224l-2.301-5.498c-1.901.945-3.656 2.129-5.232 3.515zm34.782 2.89l-4.289 4.247c.306.408.598.827.868 1.263l5.618-2.301c-.649-1.13-1.38-2.202-2.197-3.209zm-16.762-2.876c.933.104 1.837.288 2.722.525l2.316-5.542c-1.613-.489-3.302-.804-5.038-.949v5.966zm-7.329.671c1.063-.322 2.171-.547 3.309-.672v-5.964c-1.946.157-3.823.543-5.612 1.134l2.303 5.502zm26.144 27.147l-13.738.004c-.555-.012-.744.346-.422.787l3.039 4.217c-3.006 1.912-5.685 2.832-9.705 2.847v.016c-10.05-.002-18.1-8.017-18.096-17.904 0-4.438 1.644-8.493 4.346-11.62l-4.251-4.207c-3.795 4.217-6.125 9.755-6.125 15.839 0 13.158 10.056 23.857 24.125 23.857v-.004c4.02-.012 9.07-1.279 13.125-3.9l.117-.078 2.971 4.07c.326.445.728.373.889-.146l4.434-12.807c.165-.525-.154-.959-.709-.971zm-3.24-14.533c.076.32.143.539.203.539h6.086c-.148 0-.376-1.991-.676-3.053l-5.613 2.514z"/></svg>